<mxfile host="app.diagrams.net" agent="Mozilla/5.0 (Windows NT 10.0; Win64; x64) AppleWebKit/537.36 (KHTML, like Gecko) Chrome/140.0.0.0 Safari/537.36" version="28.2.5">
  <diagram name="Página-1" id="5s2oXnH0Cc8e8BEYJKZX">
    <mxGraphModel dx="1202" dy="1770" grid="1" gridSize="10" guides="1" tooltips="1" connect="1" arrows="1" fold="1" page="1" pageScale="1" pageWidth="827" pageHeight="1169" math="0" shadow="0">
      <root>
        <mxCell id="0" />
        <mxCell id="1" parent="0" />
        <mxCell id="rPUSW20Cw1H4MXpb6hYK-1" value="" style="edgeStyle=orthogonalEdgeStyle;rounded=0;orthogonalLoop=1;jettySize=auto;html=1;fontFamily=Helvetica;fontSize=12;fontColor=default;" edge="1" parent="1" source="rPUSW20Cw1H4MXpb6hYK-2" target="rPUSW20Cw1H4MXpb6hYK-7">
          <mxGeometry relative="1" as="geometry">
            <Array as="points">
              <mxPoint x="50" y="-1130" />
            </Array>
          </mxGeometry>
        </mxCell>
        <mxCell id="rPUSW20Cw1H4MXpb6hYK-2" value="Postagem Inicial" style="whiteSpace=wrap;html=1;aspect=fixed;align=center;verticalAlign=middle;fontFamily=Helvetica;fontSize=12;fillColor=none;rounded=1;glass=0;rotation=0;" vertex="1" parent="1">
          <mxGeometry x="10" y="-1101" width="70" height="30" as="geometry" />
        </mxCell>
        <mxCell id="rPUSW20Cw1H4MXpb6hYK-3" style="edgeStyle=orthogonalEdgeStyle;rounded=0;orthogonalLoop=1;jettySize=auto;html=1;exitX=0;exitY=0.75;exitDx=0;exitDy=0;entryX=0.25;entryY=1;entryDx=0;entryDy=0;" edge="1" parent="1" source="rPUSW20Cw1H4MXpb6hYK-4" target="rPUSW20Cw1H4MXpb6hYK-7">
          <mxGeometry relative="1" as="geometry" />
        </mxCell>
        <mxCell id="rPUSW20Cw1H4MXpb6hYK-4" value="Revisão" style="whiteSpace=wrap;html=1;aspect=fixed;align=center;verticalAlign=middle;fontFamily=Helvetica;fontSize=12;fillColor=none;rounded=1;glass=0;rotation=0;" vertex="1" parent="1">
          <mxGeometry x="180" y="-1101" width="70" height="30" as="geometry" />
        </mxCell>
        <mxCell id="rPUSW20Cw1H4MXpb6hYK-5" style="edgeStyle=orthogonalEdgeStyle;rounded=0;orthogonalLoop=1;jettySize=auto;html=1;exitX=0.75;exitY=1;exitDx=0;exitDy=0;entryX=0;entryY=0.25;entryDx=0;entryDy=0;" edge="1" parent="1" source="rPUSW20Cw1H4MXpb6hYK-7" target="rPUSW20Cw1H4MXpb6hYK-4">
          <mxGeometry relative="1" as="geometry" />
        </mxCell>
        <mxCell id="rPUSW20Cw1H4MXpb6hYK-6" style="edgeStyle=orthogonalEdgeStyle;rounded=0;orthogonalLoop=1;jettySize=auto;html=1;exitX=1;exitY=0.5;exitDx=0;exitDy=0;entryX=0;entryY=0.5;entryDx=0;entryDy=0;" edge="1" parent="1" source="rPUSW20Cw1H4MXpb6hYK-7" target="rPUSW20Cw1H4MXpb6hYK-10">
          <mxGeometry relative="1" as="geometry" />
        </mxCell>
        <mxCell id="rPUSW20Cw1H4MXpb6hYK-7" value="Verificão" style="whiteSpace=wrap;html=1;aspect=fixed;align=center;verticalAlign=middle;fontFamily=Helvetica;fontSize=12;fillColor=none;rounded=1;glass=0;rotation=0;" vertex="1" parent="1">
          <mxGeometry x="80" y="-1150" width="70" height="30" as="geometry" />
        </mxCell>
        <mxCell id="rPUSW20Cw1H4MXpb6hYK-8" style="edgeStyle=orthogonalEdgeStyle;rounded=0;orthogonalLoop=1;jettySize=auto;html=1;exitX=0.5;exitY=1;exitDx=0;exitDy=0;entryX=0.5;entryY=0;entryDx=0;entryDy=0;" edge="1" parent="1" source="rPUSW20Cw1H4MXpb6hYK-10" target="rPUSW20Cw1H4MXpb6hYK-4">
          <mxGeometry relative="1" as="geometry" />
        </mxCell>
        <mxCell id="rPUSW20Cw1H4MXpb6hYK-9" style="edgeStyle=orthogonalEdgeStyle;rounded=0;orthogonalLoop=1;jettySize=auto;html=1;exitX=1;exitY=0.5;exitDx=0;exitDy=0;entryX=0;entryY=0.5;entryDx=0;entryDy=0;" edge="1" parent="1" source="rPUSW20Cw1H4MXpb6hYK-10" target="rPUSW20Cw1H4MXpb6hYK-12">
          <mxGeometry relative="1" as="geometry" />
        </mxCell>
        <mxCell id="rPUSW20Cw1H4MXpb6hYK-10" value="Aprovação" style="whiteSpace=wrap;html=1;aspect=fixed;align=center;verticalAlign=middle;fontFamily=Helvetica;fontSize=12;fillColor=none;rounded=1;glass=0;rotation=0;" vertex="1" parent="1">
          <mxGeometry x="180" y="-1150" width="70" height="30" as="geometry" />
        </mxCell>
        <mxCell id="rPUSW20Cw1H4MXpb6hYK-11" style="edgeStyle=orthogonalEdgeStyle;rounded=0;orthogonalLoop=1;jettySize=auto;html=1;exitX=1;exitY=0.5;exitDx=0;exitDy=0;" edge="1" parent="1" source="rPUSW20Cw1H4MXpb6hYK-12" target="rPUSW20Cw1H4MXpb6hYK-15">
          <mxGeometry relative="1" as="geometry" />
        </mxCell>
        <mxCell id="rPUSW20Cw1H4MXpb6hYK-12" value="Emessão" style="whiteSpace=wrap;html=1;aspect=fixed;align=center;verticalAlign=middle;fontFamily=Helvetica;fontSize=12;fillColor=none;rounded=1;glass=0;rotation=0;" vertex="1" parent="1">
          <mxGeometry x="280" y="-1150" width="70" height="30" as="geometry" />
        </mxCell>
        <mxCell id="rPUSW20Cw1H4MXpb6hYK-13" style="edgeStyle=orthogonalEdgeStyle;rounded=0;orthogonalLoop=1;jettySize=auto;html=1;exitX=0.5;exitY=1;exitDx=0;exitDy=0;entryX=1;entryY=0.25;entryDx=0;entryDy=0;fontFamily=Helvetica;fontSize=12;fontColor=default;" edge="1" parent="1" source="rPUSW20Cw1H4MXpb6hYK-15" target="rPUSW20Cw1H4MXpb6hYK-4">
          <mxGeometry relative="1" as="geometry" />
        </mxCell>
        <mxCell id="rPUSW20Cw1H4MXpb6hYK-14" style="edgeStyle=orthogonalEdgeStyle;rounded=0;orthogonalLoop=1;jettySize=auto;html=1;exitX=1;exitY=0.5;exitDx=0;exitDy=0;entryX=0;entryY=0.5;entryDx=0;entryDy=0;" edge="1" parent="1" source="rPUSW20Cw1H4MXpb6hYK-15" target="rPUSW20Cw1H4MXpb6hYK-18">
          <mxGeometry relative="1" as="geometry" />
        </mxCell>
        <mxCell id="rPUSW20Cw1H4MXpb6hYK-15" value="Comentários Cliente" style="whiteSpace=wrap;html=1;aspect=fixed;align=center;verticalAlign=middle;fontFamily=Helvetica;fontSize=12;fillColor=none;rounded=1;glass=0;rotation=0;" vertex="1" parent="1">
          <mxGeometry x="380" y="-1150" width="70" height="30" as="geometry" />
        </mxCell>
        <mxCell id="rPUSW20Cw1H4MXpb6hYK-16" style="edgeStyle=orthogonalEdgeStyle;rounded=0;orthogonalLoop=1;jettySize=auto;html=1;exitX=0.5;exitY=1;exitDx=0;exitDy=0;entryX=1;entryY=0.5;entryDx=0;entryDy=0;fontFamily=Helvetica;fontSize=12;fontColor=default;" edge="1" parent="1" source="rPUSW20Cw1H4MXpb6hYK-18" target="rPUSW20Cw1H4MXpb6hYK-4">
          <mxGeometry relative="1" as="geometry" />
        </mxCell>
        <mxCell id="rPUSW20Cw1H4MXpb6hYK-17" style="edgeStyle=orthogonalEdgeStyle;rounded=0;orthogonalLoop=1;jettySize=auto;html=1;exitX=1;exitY=0.5;exitDx=0;exitDy=0;entryX=0;entryY=0.5;entryDx=0;entryDy=0;" edge="1" parent="1" source="rPUSW20Cw1H4MXpb6hYK-18" target="rPUSW20Cw1H4MXpb6hYK-20">
          <mxGeometry relative="1" as="geometry" />
        </mxCell>
        <mxCell id="rPUSW20Cw1H4MXpb6hYK-18" value="Análise Cliente" style="whiteSpace=wrap;html=1;aspect=fixed;align=center;verticalAlign=middle;fontFamily=Helvetica;fontSize=12;fillColor=none;rounded=1;glass=0;rotation=0;" vertex="1" parent="1">
          <mxGeometry x="480" y="-1150" width="70" height="30" as="geometry" />
        </mxCell>
        <mxCell id="rPUSW20Cw1H4MXpb6hYK-19" style="edgeStyle=orthogonalEdgeStyle;rounded=0;orthogonalLoop=1;jettySize=auto;html=1;exitX=1;exitY=0.5;exitDx=0;exitDy=0;entryX=0;entryY=0.5;entryDx=0;entryDy=0;" edge="1" parent="1" source="rPUSW20Cw1H4MXpb6hYK-20" target="rPUSW20Cw1H4MXpb6hYK-23">
          <mxGeometry relative="1" as="geometry" />
        </mxCell>
        <mxCell id="rPUSW20Cw1H4MXpb6hYK-20" value="Comentários Proprietário" style="whiteSpace=wrap;html=1;aspect=fixed;align=center;verticalAlign=middle;fontFamily=Helvetica;fontSize=12;fillColor=none;rounded=1;glass=0;rotation=0;" vertex="1" parent="1">
          <mxGeometry x="580" y="-1150" width="70" height="30" as="geometry" />
        </mxCell>
        <mxCell id="rPUSW20Cw1H4MXpb6hYK-21" style="edgeStyle=orthogonalEdgeStyle;rounded=0;orthogonalLoop=1;jettySize=auto;html=1;exitX=0.5;exitY=1;exitDx=0;exitDy=0;entryX=1;entryY=0.75;entryDx=0;entryDy=0;" edge="1" parent="1" source="rPUSW20Cw1H4MXpb6hYK-23" target="rPUSW20Cw1H4MXpb6hYK-4">
          <mxGeometry relative="1" as="geometry" />
        </mxCell>
        <mxCell id="rPUSW20Cw1H4MXpb6hYK-22" style="edgeStyle=orthogonalEdgeStyle;rounded=0;orthogonalLoop=1;jettySize=auto;html=1;exitX=1;exitY=0.5;exitDx=0;exitDy=0;entryX=0;entryY=0.5;entryDx=0;entryDy=0;" edge="1" parent="1" source="rPUSW20Cw1H4MXpb6hYK-23" target="rPUSW20Cw1H4MXpb6hYK-25">
          <mxGeometry relative="1" as="geometry" />
        </mxCell>
        <mxCell id="rPUSW20Cw1H4MXpb6hYK-23" value="Análise Técnica" style="whiteSpace=wrap;html=1;aspect=fixed;align=center;verticalAlign=middle;fontFamily=Helvetica;fontSize=12;fillColor=none;rounded=1;glass=0;rotation=0;" vertex="1" parent="1">
          <mxGeometry x="680" y="-1150" width="70" height="30" as="geometry" />
        </mxCell>
        <mxCell id="rPUSW20Cw1H4MXpb6hYK-24" value="" style="edgeStyle=orthogonalEdgeStyle;rounded=0;orthogonalLoop=1;jettySize=auto;html=1;fontFamily=Helvetica;fontSize=12;fontColor=default;" edge="1" parent="1" source="rPUSW20Cw1H4MXpb6hYK-25" target="rPUSW20Cw1H4MXpb6hYK-27">
          <mxGeometry relative="1" as="geometry" />
        </mxCell>
        <mxCell id="rPUSW20Cw1H4MXpb6hYK-25" value="Revisão Aprovado" style="whiteSpace=wrap;html=1;aspect=fixed;align=center;verticalAlign=middle;fontFamily=Helvetica;fontSize=12;fillColor=none;rounded=1;glass=0;rotation=0;" vertex="1" parent="1">
          <mxGeometry x="780" y="-1150" width="70" height="30" as="geometry" />
        </mxCell>
        <mxCell id="rPUSW20Cw1H4MXpb6hYK-26" style="edgeStyle=orthogonalEdgeStyle;rounded=0;orthogonalLoop=1;jettySize=auto;html=1;exitX=0.5;exitY=1;exitDx=0;exitDy=0;entryX=0.5;entryY=0;entryDx=0;entryDy=0;" edge="1" parent="1" source="rPUSW20Cw1H4MXpb6hYK-27" target="rPUSW20Cw1H4MXpb6hYK-28">
          <mxGeometry relative="1" as="geometry" />
        </mxCell>
        <mxCell id="rPUSW20Cw1H4MXpb6hYK-27" value="Emissão Aprovado" style="whiteSpace=wrap;html=1;aspect=fixed;align=center;verticalAlign=middle;fontFamily=Helvetica;fontSize=12;fillColor=none;rounded=1;glass=0;rotation=0;" vertex="1" parent="1">
          <mxGeometry x="880" y="-1150" width="70" height="30" as="geometry" />
        </mxCell>
        <mxCell id="rPUSW20Cw1H4MXpb6hYK-28" value="Postagem Concluída" style="whiteSpace=wrap;html=1;aspect=fixed;align=center;verticalAlign=middle;fontFamily=Helvetica;fontSize=12;fillColor=none;rounded=1;glass=0;rotation=0;" vertex="1" parent="1">
          <mxGeometry x="880" y="-1101" width="70" height="30" as="geometry" />
        </mxCell>
      </root>
    </mxGraphModel>
  </diagram>
</mxfile>
